<svg id="Type" xmlns="http://www.w3.org/2000/svg" viewBox="0 0 121.12 44.52"><defs><style>.cls-1{fill:#fff;}</style></defs><path class="cls-1" d="M3.5,36.94V22.27h-2V19.09H9.83v3.18H7.94V28h8.43V22.27H14.48V19.09h8.31v3.18h-2V36.94h2v3.18H14.48V36.94h1.89V31.09H7.94v5.85H9.83v3.18H1.52V36.94Z" transform="translate(-1.08 -1.08)"/><path class="cls-1" d="M30.47,40.51c-4.53,0-7.2-3.09-7.2-7.47s3-7.38,7-7.38,7,2.85,7,7.71a7.86,7.86,0,0,1,0,.84h-10a3.4,3.4,0,0,0,3.48,3.42,3,3,0,0,0,3-1.74h3.33C36.32,38.92,33.56,40.51,30.47,40.51Zm-3.18-8.67h6.24c-.21-1.95-1.41-3.15-3.12-3.15S27.59,29.8,27.29,31.84Z" transform="translate(-1.08 -1.08)"/><path class="cls-1" d="M38.36,35.56c0-3,2.19-5,5.46-5a6.23,6.23,0,0,1,4.11,1.35v-.48c0-1.89-1.41-3-3.63-3a13.2,13.2,0,0,0-4.35.87V26.44a14.24,14.24,0,0,1,5.28-.84c4.74,0,6.54,2.4,6.54,5v6.72h1.74v2.79h-5.7V38.65a5.24,5.24,0,0,1-4.35,1.82C40.37,40.47,38.36,38.53,38.36,35.56Zm9.51-.21a2.53,2.53,0,0,0-2.79-2.46,2.58,2.58,0,0,0-2.85,2.46c0,1.5,1.2,2.39,2.85,2.39S47.87,36.85,47.87,35.35Z" transform="translate(-1.08 -1.08)"/><path class="cls-1" d="M60.11,25.66a5.26,5.26,0,0,1,4.32,2.22v-6H62.72V19.09h5.64V37.33h1.71v2.79H64.49l0-1.9a5.13,5.13,0,0,1-4.38,2.29c-3.54,0-6.06-3-6.06-7.41S56.54,25.66,60.11,25.66Zm1.11,3c-2,0-3.27,1.74-3.27,4.47s1.35,4.31,3.33,4.31,3.18-2.15,3.18-4.46C64.46,30.49,63.14,28.69,61.22,28.69Z" transform="translate(-1.08 -1.08)"/><path class="cls-1" d="M69.89,28.75V26h7v2.79H75.17l2.16,7.08h.06L80.54,26h2.67l3.15,10h.06l2.07-7.17H87V26h5.31v2.79H91.13L87.46,40.3H84l-2.79-8.82h0L78.35,40.3H74.9L71.3,28.75Z" transform="translate(-1.08 -1.08)"/><path class="cls-1" d="M92.29,35.56c0-3,2.19-5,5.46-5a6.23,6.23,0,0,1,4.11,1.35v-.48c0-1.89-1.41-3-3.63-3a13.2,13.2,0,0,0-4.35.87V26.44a14.26,14.26,0,0,1,5.29-.84c4.73,0,6.53,2.4,6.53,5v6.72h1.74v2.79h-5.7V38.65a5.22,5.22,0,0,1-4.35,1.82C94.3,40.47,92.29,38.53,92.29,35.56Zm9.51-.21A2.53,2.53,0,0,0,99,32.89a2.57,2.57,0,0,0-2.84,2.46c0,1.5,1.19,2.39,2.84,2.39S101.8,36.85,101.8,35.35Z" transform="translate(-1.08 -1.08)"/><path class="cls-1" d="M117.19,45.6h-7.52V42.81h2.16l1.22-2.88-4.82-11.18H107V26h6.87v2.79h-1.66l2.79,6.6,2.83-6.6h-1.71V26h6.08v2.79h-1.28l-6,14.06h2.27Z" transform="translate(-1.08 -1.08)"/><path class="cls-1" d="M9.19,2.54c0-1.16-1.09-1.5-2-1.46v.19c.54,0,1,.19,1,.55S8,2.4,7.43,2.4a7.93,7.93,0,0,1-1.95-.48,7,7,0,0,0-2-.49,2,2,0,0,0-2,1.9,1.35,1.35,0,0,0,.91,1.28l.09-.14a.63.63,0,0,1-.34-.58.73.73,0,0,1,.81-.66,9.25,9.25,0,0,1,2.15.51,18.93,18.93,0,0,0,2.16.49V6l-.9.75v.07l.9.78v2.5a3,3,0,0,1-1.46.33,2.92,2.92,0,0,1-2.3-.93l2.4-1.16v-4L2.91,5.68A3.53,3.53,0,0,1,4.46,4l0-.14A4.44,4.44,0,0,0,1.08,7.93,4.12,4.12,0,0,0,5.2,12.07,3.76,3.76,0,0,0,9.06,8.24l-.14,0a4,4,0,0,1-1.51,1.85V7.64l.95-.76V6.8L7.41,6V4.23A1.7,1.7,0,0,0,9.19,2.54ZM4.09,9l-.72.34A3.57,3.57,0,0,1,2.7,7.15a4,4,0,0,1,.17-1.26L4.1,5.35V9Zm6.22,1.29-.79.59.1.11.38-.26L11.31,12l1.76-1.17L13,10.67l-.46.29L12,10.39v-4L12.43,6l1,.81v3.56c0,2.22-.49,2.59-1.5,2.95v.15c1.66.07,3.16-.49,3.16-3.34V6.32l.53-.42-.1-.12-.46.36L13.63,4.9,12,6.16V1.32h-.12L9.75,2.72v.12a.84.84,0,0,1,.56.91v6.58ZM21,9.71,19.6,10.82,18.1,9.65V9l2.78-1.86V7L19.5,4.88l-3,1.63v3.85l-.6.46L16,11l.54-.43,2,1.44,2.66-2.1L21,9.71Zm-2.94-1V5.86l.1-.07,1.29,2-1.39.92ZM32.27,2a1.63,1.63,0,0,0-.11-.55H32c-.18.49-.4.76-1,.76a1.55,1.55,0,0,1-1.1-.54s-1.68,2-1.68,2l.14.12.48-.54a2,2,0,0,0,1.44.56V8.66l-3.44-6a1.87,1.87,0,0,0-1.54-1.11,1.78,1.78,0,0,0-1.66,2.13h.17c0-.36.22-.75.63-.75a1,1,0,0,1,.76.59V5.47c-1.06,0-1.76.49-1.76,1.36a1.31,1.31,0,0,0,1,1.34V8a.53.53,0,0,1-.19-.4c0-.32.23-.53.67-.53l.3,0V9.62c-1.24,0-2.2.7-2.2,1.87a1.68,1.68,0,0,0,2,1.6V13c-.63-.07-1-.36-1-.77a.75.75,0,0,1,.82-.77,1.62,1.62,0,0,1,1.19.63l1.69-1.89L27.62,10l-.43.49a2.89,2.89,0,0,0-1.75-.9V3.74L30.18,12h.33V3.77A1.81,1.81,0,0,0,32.27,2Zm4.24,7.7-1.44,1.11-1.5-1.17V9l2.78-1.86V7L35,4.88l-3,1.63v3.85l-.6.46.1.13.54-.43L34,12l2.66-2.1-.11-.15Zm-2.94-1V5.86l.1-.07,1.29,2-1.39.92ZM46.12,5.53l-.43.32L44.57,4.9l-1.3,1.17.53.51V11l-1.42-.91V6.49l.46-.32L41.47,4.9,40.2,6.07l.53.51v4.2l-.18.11L39.3,10V6.48c0-.81-.39-1.05-.91-1.37s-.62-.49-.62-.9.33-.53.5-.63c0,0,0-.14,0-.14a1.83,1.83,0,0,0-1.71,1.61,1.32,1.32,0,0,0,.55,1.12,1.34,1.34,0,0,1,.56,1v3.4l-.63.49.1.13.58-.45L39.25,12l1.46-1,1.63,1,3.11-1.81V6.23l.77-.56-.1-.14ZM57,2.3l-.59.53L55.11,1.68,53.19,3.11V1.77H53l0,9.51c-.19,0-.68-.14-1.13-.2l0-8A1.39,1.39,0,0,0,50.4,1.73a1.71,1.71,0,0,0-1.78,1.64h.17c.06-.34.24-.65.59-.65s.67.22.67,1V6c-1.08,0-1.69.64-1.69,1.38a1.08,1.08,0,0,0,1,1.2l0-.14c-.25-.11-.31-.26-.31-.4,0-.34.33-.48.77-.48H50v3.64a1.67,1.67,0,0,0-1.24,1.63,1.77,1.77,0,0,0,1.93,1.72A9.69,9.69,0,0,0,53,14.26,11.74,11.74,0,0,1,54.63,14c.45,0,.65.21.65.53a.56.56,0,0,1-.42.63l0,.14a1.64,1.64,0,0,0,1.52-1.63c0-.89-.85-1.42-1.8-1.42a11.94,11.94,0,0,0-2.18.32,11.66,11.66,0,0,1-1.89.27c-.41,0-.91-.2-.91-.74s.41-.88,1.41-.88a8.47,8.47,0,0,1,1.83.23,9.45,9.45,0,0,0,2,.35c.85,0,1.62-.31,1.62-1.55V3l.69-.59L57,2.3Zm-2.4,3.62a1,1,0,0,1-.7.33,1.11,1.11,0,0,1-.72-.33V3.31l.61-.41.81.74V5.92Zm0,1.75a1,1,0,0,0-.7-.3,1.15,1.15,0,0,0-.72.3V6.13a1.21,1.21,0,0,0,.72.31,1,1,0,0,0,.7-.31V7.67Zm0,2.73a.91.91,0,0,1-.94.94,3.87,3.87,0,0,1-.48,0V7.88a1.11,1.11,0,0,1,.72-.33,1.05,1.05,0,0,1,.7.33V10.4Zm8-4.16-1.9-1.36L57.88,6.52v3.83l-.59.47.08.13.46-.38L59.72,12l2.91-1.78V6.24Zm-3.12,3.7V5.75L61,6.81V11L59.51,9.94ZM68.23,5h-.11a.83.83,0,0,1-.52.24A.9.9,0,0,1,67,5h-.12L65.84,6,64.82,5,63.09,6.16l.08.14L63.63,6l.6.64v3.7l-.78.59.1.11.38-.26L65.34,12l1.83-1.22-.08-.12-.52.31-.69-.62V6.2a1.55,1.55,0,0,0,1.05.6c.78,0,1.22-.87,1.3-1.76Zm7.06,5.63-2,1.31L70.58,7.89l1.91-3h.13a1.53,1.53,0,0,0,1,.46,1,1,0,0,0,.85-.46h.11A1.79,1.79,0,0,1,73.1,6.76a2,2,0,0,1-1.23-.48l-.19.27,2.94,4.34.59-.36.08.14Zm-6.46-.34-.78.59.1.11.38-.26L69.84,12,71.6,10.8l-.1-.13-.44.29-.58-.57V1.32h-.12L68.23,2.73v.13a.82.82,0,0,1,.6.89v6.58ZM85,2.54c0-1.16-1.09-1.5-2-1.46v.19c.55,0,1,.19,1,.55s-.19.58-.73.58a8,8,0,0,1-1.94-.48,7,7,0,0,0-2-.49,1.94,1.94,0,0,0-2,1.9,1.34,1.34,0,0,0,.91,1.28l.08-.14a.63.63,0,0,1-.34-.58.73.73,0,0,1,.81-.66,9.3,9.3,0,0,1,2.16.51,18.38,18.38,0,0,0,2.15.49V6l-.9.75v.07l.9.78v2.5a3.34,3.34,0,0,1-3.76-.6l2.4-1.16v-4l-3,1.31A3.55,3.55,0,0,1,80.31,4l0-.14a4.45,4.45,0,0,0-3.34,4.07,4.13,4.13,0,0,0,4.13,4.14A3.76,3.76,0,0,0,84.9,8.24l-.14,0a4,4,0,0,1-1.51,1.85V7.64l1-.76,0-.08L83.25,6V4.23A1.7,1.7,0,0,0,85,2.54ZM79.93,9l-.71.34a3.51,3.51,0,0,1-.67-2.23,4.27,4.27,0,0,1,.16-1.26l1.23-.54V9ZM87,2H87L85.78,3v.08l1,1.12h.09l1.18-1,0-.07L87,2Zm1.79,8.68-.45.29-.57-.57V6.34l.56-.42-.11-.14-.44.33-1-1.21L85.13,6.07l.1.16L85.64,6l.52.64v3.8l-.75.57.08.12.39-.28L87.17,12l1.76-1.17-.1-.13Zm9.78-.07-.42.28-.62-.57v-4l.6-.44-.1-.13-.52.39L96.21,4.9,94.48,6.13,93.15,4.9,91.44,6.11l-1-1.21L88.72,6.07l.08.16L89.22,6l.58.63v3.8l-.47.46L90.68,12,92,10.8l-.54-.51v-4L92,6l.91.84v3.55l-.45.46L93.76,12,95,10.8l-.54-.51v-4L95,6l1,.83v3.49l-.39.41L96.9,12l1.8-1.23-.09-.14Zm5.11-.89-1.44,1.11-1.5-1.17V9l2.78-1.86V7l-1.38-2.13-3,1.63v4l2,1.47,2.66-2.1-.11-.15Zm-2.94-1V5.86l.1-.07,1.28,2-1.38.92Zm8.3-.55L108,7.34a3,3,0,0,0,1-2.14c0-.08,0-.23,0-.37h-.14a.8.8,0,0,1-.8.57,1.42,1.42,0,0,1-1-.56l-2.64,1.44V8.42l1,.77c-1,.88-1.17,1.49-1.17,1.94a1.17,1.17,0,0,0,.77,1.2l.07-.12a.51.51,0,0,1-.24-.45c0-.2.24-.48.68-.48a1.46,1.46,0,0,1,1.11.6s2.54-1.52,2.54-1.52V8.19Zm-.63-1.76a7.22,7.22,0,0,1-1.8,1.78l-.64-.5V5.62a1.76,1.76,0,0,0,1.53,1,1.67,1.67,0,0,0,.91-.23Zm-1,4.67A1.92,1.92,0,0,0,105.74,10a2,2,0,0,0-1.1.28,6.5,6.5,0,0,1,2-1.89l.73.56V11.1Z" transform="translate(-1.08 -1.08)"/></svg>